ply
format ascii 1.0
element vertex 3
property float x
property float y
property float z
property float rot_0
property float rot_1
property float rot_2
property float rot_3
property float scale_0
property float scale_1
property float scale_2
property float opacity
property float nx
property float ny
property float nz
property float f_dc_0
property float f_dc_1
property float f_dc_2
property float f_rest_0
property float f_rest_1
property float f_rest_2
property float f_rest_3
property float f_rest_4
property float f_rest_5
property float f_rest_6
property float f_rest_7
property float f_rest_8
property float f_rest_9
property float f_rest_10
property float f_rest_11
property float f_rest_12
property float f_rest_13
property float f_rest_14
property float f_rest_15
property float f_rest_16
property float f_rest_17
property float f_rest_18
property float f_rest_19
property float f_rest_20
property float f_rest_21
property float f_rest_22
property float f_rest_23
property float f_rest_24
property float f_rest_25
property float f_rest_26
property float f_rest_27
property float f_rest_28
property float f_rest_29
property float f_rest_30
property float f_rest_31
property float f_rest_32
property float f_rest_33
property float f_rest_34
property float f_rest_35
property float f_rest_36
property float f_rest_37
property float f_rest_38
property float f_rest_39
property float f_rest_40
property float f_rest_41
property float f_rest_42
property float f_rest_43
property float f_rest_44
end_header
2.0078542 0.08104886 1.3285047 1.0344028 -0.19919053 -0.10477345 -0.014542822 -3.8865843 -5.659209 -4.7688828 0.84990764 0 0 0 1.1078603 0.76136017 0.06554606 -0.0057055317 -0.007687452 -0.0043917783 -0.0037030454 -0.010418807 0.06328091 0.0073155826 -0.0065571507 0.012642727 0.006464842 -0.022115033 -0.015164005 0.03302637 -0.023272093 -0.016852863 0.006827223 0.0045320853 -0.005715641 0.017861754 -0.01044909 0.0427432 0.011729195 -0.0037403249 0.009896112 -0.008849159 -0.00833527 -0.028211955 0.03504748 0.014180188 0.011458171 0.024590509 0.01905671 -0.016029052 0.02723091 -0.025627526 0.03138132 0.031709813 0.0045662196 0.018008206 -0.022949746 0.006410549 -0.033924486 0.029564247 0.038887653 0.028849693 
-1.4992275 -0.05719799 -1.2088296 0.9401622 0.09101284 -0.03510389 0.090294436 -4.7556906 -4.3987455 -4.3093553 -3.2084684 0 0 0 -0.26678878 -0.0006179106 -0.15951137 0.011558187 -0.018026937 0.019850181 0.016947305 0.009698927 -0.023021251 -0.007827111 -0.0050799116 -0.0050815 0.013892249 0.015627379 -0.021112375 -0.031770438 0.0004951431 0.025116337 -0.0015374062 -0.005778535 0.017709136 0.017171137 -0.010681042 0.001893719 -0.010320924 -0.00038746654 -0.002406355 0.015752463 -0.00032986197 -0.002610365 -0.025153438 -0.007374799 0.016466485 -0.007496557 0.002047911 0.015540049 0.015543044 -0.011501771 0.004057203 -0.009330997 0.0013225069 -0.003023835 0.014331974 0.0010585084 -0.0030934692 -0.022247976 -0.0067233816 0.01490688 
-2.7480826 -1.0123506 -1.3970541 0.5267736 -0.1882949 -0.43221036 -0.03793568 -5.6808167 -4.8350945 -3.1652412 -1.8340071 0 0 0 0.0023806388 0.4387073 -0.36169815 0.013920748 -0.026379386 -0.10093726 -0.06210635 -0.005564068 -0.04924871 -0.049234055 0.05895561 0.055857204 -0.05385731 -0.015337387 -0.07097185 -0.033164646 0.045977682 -0.006754283 0.040439546 0.008493902 -0.08833112 -0.055725556 0.0056923376 -0.03062819 -0.040327944 0.03734891 0.04499359 -0.044175673 -0.0043932316 -0.05312278 -0.027976658 0.024981279 0.002646055 0.008141398 -0.023501428 -0.07903523 -0.04614676 -0.043925952 -0.080054745 -0.029137267 0.084511675 0.07086831 -0.02679687 -0.049483165 -0.09145885 -0.018364685 0.075355835 -0.021842895 
